<svg xmlns="http://www.w3.org/2000/svg" viewBox="0 0 175 174.99"><title>资源 5</title><g id="图层_2" data-name="图层 2"><g id="Layer_2" data-name="Layer 2"><path d="M127.26,87.17A39.74,39.74,0,0,0,94.13,48.05v78.26A39.69,39.69,0,0,0,127.26,87.17Z" style="fill:#fff;fill-rule:evenodd"/><path d="M47.8,87.17a39.7,39.7,0,0,0,33.27,39.18V48A39.72,39.72,0,0,0,47.8,87.17Z" style="fill:#fff;fill-rule:evenodd"/><path d="M87.54,0A87.5,87.5,0,1,0,175,87.49,87.55,87.55,0,0,0,87.54,0Zm0,164A76.81,76.81,0,0,1,10.87,91.81H23.53a64.17,64.17,0,0,0,57.54,59.23v-11.5a52.76,52.76,0,0,1,0-104.73V23.35A64.19,64.19,0,0,0,23.81,79.42l-12.7,0a76.81,76.81,0,0,1,152.83.13H151.23a64.16,64.16,0,0,0-57.1-56.18V34.84a52.75,52.75,0,0,1,0,104.68V151a64.21,64.21,0,0,0,57.42-59.31l12.64.1A76.83,76.83,0,0,1,87.54,164Z" style="fill:#fff;fill-rule:evenodd"/></g></g></svg>