<svg xmlns="http://www.w3.org/2000/svg" viewBox="0 0 175 174.99"><title>资源 7</title><g id="图层_2" data-name="图层 2"><g id="Layer_2" data-name="Layer 2"><path d="M86.29,28.47a7.2,7.2,0,0,0,1.78-1.71,19.48,19.48,0,0,1,19-4.54,21,21,0,0,1,9,5.49,16.1,16.1,0,0,1,4.71,9.68c.37,4.47-.08,8.78-.08,13.39,0,2.92-.08,6.59-.17,9.88a16.88,16.88,0,0,1,0,3.34c-.22.56-2.64,1.69-3.28,2-3.37,1.94-6.81,4-10,5.66,0-7.71-.29-15.46-.29-23.41,0-2.85.35-6.49-.59-8.42-2.38-4.77-11.26-4.26-12.72,1-.47,1.81-.25,4.18-.25,6.6V67.93c-4.82-.11-9.87,0-14.65-.16V48c0-2.45.35-5.81-.35-7.64-2.37-6.08-13-5.13-14,1.47-.34,2.33.07,4.92.07,7.44V71.71a3.63,3.63,0,0,1-1.7-.77c-4-2.34-8.54-4.75-12.55-7.2,0-4.48.09-8.65.09-12.86,0-4.4-.3-8.79,0-12.88.4-5.18,3.67-9.53,6.88-12.1a24,24,0,0,1,14.06-5.23C78.92,20.31,83.51,23.79,86.29,28.47Z" style="fill:#fff;fill-rule:evenodd"/><path d="M123.67,67.85c4.81,2.75,9.94,5.9,15,8.83a61.49,61.49,0,0,1,7.44,4.46c4.31,3.43,7.17,9.25,6.89,16.83a24.45,24.45,0,0,1-2.49,9.42c-2.64,5.32-6.72,9.27-14.07,9.71a24.19,24.19,0,0,1,1.21,9.85,20.65,20.65,0,0,1-3.17,8.24,20.43,20.43,0,0,1-13.84,9,15.39,15.39,0,0,1-9.58-1.45c-7.34-4-15.08-8.34-22-12.28.16-5.49,0-11.26.17-16.72,7.63,4.41,15.18,8.89,23,13.47,1.4.81,2.45,1.87,4.11,2.06,5.78.64,9.76-8.08,5.58-11.94a16,16,0,0,0-2.84-1.69c-6.64-3.78-13.65-7.62-20.25-11.34,2.29-4.42,4.83-8.54,7.12-13,5.4,3,11.74,6.54,17.43,9.69,1.82,1,3.88,2.63,5.82,3.18,4.43,1.22,8.26-3,8.67-6.87.32-3-1-4.59-2.39-6.08-8.81-4.72-17.35-9.68-26.07-14.41C114.09,73.75,118.89,70.82,123.67,67.85Z" style="fill:#fff;fill-rule:evenodd"/><path d="M49,67.93c4.58,2.56,8.95,5.35,13.57,7.9-6.23,4.17-13.2,7.9-19.83,12-1,.61-2.11,1.37-3.27,2-2.24,1.34-4.56,2.54-4.61,5.75-.1,4.12,3.78,8.79,8.23,7.63C45,102.79,47.26,101,49,100c5.84-3.4,11.49-6.79,17.32-10,2.3,4.31,4.78,8.45,7.12,12.67-6.42,4-13.22,8-20,11.95a16.78,16.78,0,0,0-2.81,1.72,6.41,6.41,0,0,0-1.63,6c.71,3.8,4.7,7.77,9.35,6.08a20.12,20.12,0,0,0,3.26-1.86c7.36-4.47,15.24-9.08,22.55-13.22.08,4.11-.07,8.21-.07,12.53,0,1.27.35,3.21,0,4.2-.21.58-2,1.21-2.68,1.63-4.64,2.61-9,5.2-13.53,7.81-1.82,1-3.66,2.24-5.42,3.08-6.86,3.24-15,.37-19.63-3.18a24.61,24.61,0,0,1-6.09-6.77A17.48,17.48,0,0,1,34,122.39,15.56,15.56,0,0,1,36.09,116c-9.45-2-16.42-8.78-16.36-20.33,0-6.84,3.17-12.18,7.69-14.91C34.21,76.58,42.44,71.83,49,67.93Z" style="fill:#fff;fill-rule:evenodd"/><path d="M85.24,79.51a7.5,7.5,0,0,1,8.15,4.82c2.8,7.15-4.9,12.93-10.82,9.77A8,8,0,0,1,79,84.24,7.44,7.44,0,0,1,85.24,79.51Z" style="fill:#fff;fill-rule:evenodd"/><path d="M87.49,0A87.5,87.5,0,1,0,175,87.5,87.49,87.49,0,0,0,87.49,0Zm0,164.43A76.93,76.93,0,1,1,164.43,87.5,76.95,76.95,0,0,1,87.49,164.43Z" style="fill:#fff;fill-rule:evenodd"/></g></g></svg>