<svg xmlns="http://www.w3.org/2000/svg" viewBox="0 0 175 169.82"><title>资源 9</title><g id="图层_2" data-name="图层 2"><g id="Layer_2" data-name="Layer 2"><path d="M0,86.46a44.31,44.31,0,0,0,2,8.63,25.67,25.67,0,0,0,3.09,5.75,19.17,19.17,0,0,0,4.77,4.8,11.65,11.65,0,0,0,3.81,1.94A36.84,36.84,0,0,0,11.07,113a29.88,29.88,0,0,0-.42,7A42.91,42.91,0,0,0,12,127a24.5,24.5,0,0,0,2.77,6.23,28.54,28.54,0,0,0,5,5.45A30.87,30.87,0,0,0,25,141.92a21.35,21.35,0,0,0,5.81,1.77,61.83,61.83,0,0,0,8.9.27l-2.91-9.26s-5.8-.26-7.23-.74a16.51,16.51,0,0,1-4.69-2.58,15.64,15.64,0,0,1-2.7-3.67,16.28,16.28,0,0,1-1.66-4.88,19.46,19.46,0,0,1,.18-5.26,10,10,0,0,1,2.73-4.22c1.12-1,4.32-2,4.32-2l39.48.23,7.49,23-24.43-.09,3.22,10,24.44.1s1.5,5.19,1.81,6.55a8.78,8.78,0,0,1-.73,4.78,8.54,8.54,0,0,1-3.29,3.58,14.91,14.91,0,0,1-3.91.94A19.14,19.14,0,0,1,67.3,160a13.87,13.87,0,0,1-4.3-1.53,20,20,0,0,1-3.51-2.32,33.27,33.27,0,0,1-3.34-3.37,26.1,26.1,0,0,1-2.37-3.52c-.56-1.11-1.51-3.51-1.51-3.51L41.63,113.18l-9.9-.12,10,32.43s2,5.19,3.08,7.19a37.07,37.07,0,0,0,3.57,5.76A25.06,25.06,0,0,0,53.16,163a25.24,25.24,0,0,0,5.42,3.45A32.35,32.35,0,0,0,66.07,169a28.72,28.72,0,0,0,7.25.67,17.38,17.38,0,0,0,4.94-.86,15.24,15.24,0,0,0,4.56-2.38,35.51,35.51,0,0,0,3.85-4.05,24.87,24.87,0,0,0,4,3.61,28,28,0,0,0,6.94,3.13,33.7,33.7,0,0,0,11.71.28,30.78,30.78,0,0,0,6-2.13,40.82,40.82,0,0,0,4.88-2.85,57.58,57.58,0,0,0,4.56-4.13,62.31,62.31,0,0,0,3.85-5.34c.8-1.27,2.57-5.56,2.57-5.56l12.66-36.49-10.68,0-11.3,33.38a40.09,40.09,0,0,1-2.9,5.82,22.79,22.79,0,0,1-4.24,4.37,27.39,27.39,0,0,1-5,2.93,25.67,25.67,0,0,1-5.51,1.25,20.71,20.71,0,0,1-4.93-.58,7.88,7.88,0,0,1-3.19-2.72,8.58,8.58,0,0,1-1.1-3.51,32,32,0,0,1,.41-5c.17-.8,1.06-3.75,1.06-3.75l24.17.17,3.38-10.5-24.4.14,7.58-23.51s38.06,0,39.72.24a9.64,9.64,0,0,1,5.18,2.41,9.84,9.84,0,0,1,1.9,5.27,15.5,15.5,0,0,1-1.47,6.93,20,20,0,0,1-3.36,4.85,14.16,14.16,0,0,1-5.2,3.1,41.11,41.11,0,0,1-6.07.37l-3.22,10.13s4.62-.15,6.78-.3a19.44,19.44,0,0,0,5-.94,31.67,31.67,0,0,0,4.87-2.06,29.25,29.25,0,0,0,4.24-3.09,24.11,24.11,0,0,0,2.88-3.42,28.86,28.86,0,0,0,2.66-4.54,32.32,32.32,0,0,0,2.17-6.21,29.82,29.82,0,0,0,.5-5.26,32.59,32.59,0,0,0-.93-5.74c-.32-1-2.14-4.81-2.14-4.81a48.05,48.05,0,0,0,5-2.92,21.19,21.19,0,0,0,3.92-4.06,43,43,0,0,0,2.89-4.7,23.11,23.11,0,0,0,2.18-6.92,30.75,30.75,0,0,0,0-7.18,31.57,31.57,0,0,0-1.42-6.79,25.13,25.13,0,0,0-2.93-5.2,31.89,31.89,0,0,0-4-4.08c-.88-.65-4.53-3.77-4.53-3.77l-3.32,9.72c3.11,3,3.05,3,3.67,3.69A13.55,13.55,0,0,1,165.07,81a16.83,16.83,0,0,1,.45,6.78A16.38,16.38,0,0,1,163,94a14.45,14.45,0,0,1-3.12,3.09,9.85,9.85,0,0,1-4.32,1.18,6.61,6.61,0,0,1-2.63-.73c-.87-.4-2.39-1.2-2.39-1.2L120.26,74l7.27-22.7,19.33,13.15,3-9.4L130.68,41.25S132.13,37,132.61,36a17.14,17.14,0,0,1,2.89-3.82,11.89,11.89,0,0,1,4.39-1.82,8.67,8.67,0,0,1,5,1.3,15.46,15.46,0,0,1,3.81,3.44,20.09,20.09,0,0,1,2.14,3.76A17.18,17.18,0,0,1,152.2,44a36.84,36.84,0,0,1,.3,5.74c-.17,2-1.05,6.23-1.05,6.23l-9.7,32,8.12,6,6.77-20.79s4.69-14.82,5.09-17.06a43.43,43.43,0,0,0,.82-5.81,36.66,36.66,0,0,0-.06-5.19,47.24,47.24,0,0,0-1.18-5.42c-.31-1.2-1.42-3.6-1.89-4.8a33.67,33.67,0,0,0-3.33-5.52c-.72-.79-3.66-3.52-4.29-4.08A43.23,43.23,0,0,0,147,22.17a23.79,23.79,0,0,0-6.46-2,20.22,20.22,0,0,0-5.27.22,20.55,20.55,0,0,0-3.75,1.26,23.21,23.21,0,0,0,.18-4.87A15.18,15.18,0,0,0,129.44,11a36.51,36.51,0,0,0-3.66-4,37.23,37.23,0,0,0-5.33-4.09A40,40,0,0,0,113.84.74,50,50,0,0,0,107.38,0a29.69,29.69,0,0,0-5.27.69,54.33,54.33,0,0,0-6.79,3.09c-1.2.72-6.8,4.68-6.8,4.68l8.28,6.1s3.84-2.46,4.55-2.86A21.5,21.5,0,0,1,105,9.88a16.74,16.74,0,0,1,5.1-.46,26,26,0,0,1,5.1,1.45,23.72,23.72,0,0,1,5.09,3.61,10.24,10.24,0,0,1,2.3,4.72,11.18,11.18,0,0,1,.06,4.23,6.84,6.84,0,0,1-1.53,2.46l-5.75,4.3L83.18,6.61s-4.29-2.49-5.89-3.13a34.8,34.8,0,0,0-7.65-1.79,75.57,75.57,0,0,0-8-.35,29.52,29.52,0,0,0-7.83,1.81A28.45,28.45,0,0,0,47.53,7,24.24,24.24,0,0,0,44.16,11a18.3,18.3,0,0,0-1.93,4.53c-.24.95-1,5.26-1,5.26a32.61,32.61,0,0,0-6.23-.5,25.5,25.5,0,0,0-7.9,1.88,29.18,29.18,0,0,0-5.92,4.29,28.39,28.39,0,0,0-4.49,5.89,43.4,43.4,0,0,0-3.3,8.44,45.49,45.49,0,0,0-.51,8.37,60,60,0,0,0,.93,7.66c.47,2.24,11.26,36.5,11.26,36.5l8-5.87S22.94,55.68,22.7,54.24s-.54-5.5-.53-6.69A26.28,26.28,0,0,1,23,41.8a19.78,19.78,0,0,1,2.73-5.65,29.67,29.67,0,0,1,3.36-3.74A11.14,11.14,0,0,1,33.88,30a9.24,9.24,0,0,1,5.18,1.29,8.23,8.23,0,0,1,2.86,2.88,57,57,0,0,1,2.61,6.23L24.25,55.27l3.31,9.82L47.61,50.75,54.93,74l-30,21.18a18.85,18.85,0,0,1-4.07,2.3,5.84,5.84,0,0,1-3.36.3,10,10,0,0,1-3.82-1.92,11.66,11.66,0,0,1-2.86-3.6c-.4-1-1.26-3.44-1.49-4.31a22.8,22.8,0,0,1-.15-4.79,11,11,0,0,1,1.21-3.83,22.08,22.08,0,0,1,2.25-3.18c.8-.88,4.45-3.65,4.45-3.65L14,62.34a75.09,75.09,0,0,0-6.68,4.77,34.73,34.73,0,0,0-4.09,5,24.87,24.87,0,0,0-2.41,6A44.69,44.69,0,0,0,0,86.46Zm54.23-61a14.22,14.22,0,0,1-2.77-5.19,7.39,7.39,0,0,1,.41-4.7,10.93,10.93,0,0,1,3.93-3.74,17.61,17.61,0,0,1,4.95-1.66A19.84,19.84,0,0,1,66,10a23.76,23.76,0,0,1,5.49,1.22,62.66,62.66,0,0,1,6.93,3.62l28.41,20.68L87.65,49.3l-20.29-14L85.75,22l-8.56-6.11L59,29.33A46.7,46.7,0,0,1,54.24,25.48Zm13.4,51.09L55.18,39.38,87.06,62.47l32.51-24.35-12.83,38.6L139.15,100l-40.3-.15-12.07,38L75,99.8l-39.85-.15Z" style="fill:#fff"/></g></g></svg>