<svg xmlns="http://www.w3.org/2000/svg" viewBox="0 0 175 171.21"><title>资源 8</title><g id="图层_2" data-name="图层 2"><g id="Layer_2" data-name="Layer 2"><path d="M135.58,31.87l.14-.06s-5.24,0-7.46-4.62l-.16-.3a43.85,43.85,0,0,0-81,.32,8,8,0,0,1-5.74,4.51,43.83,43.83,0,0,0-28.29,75c.66.65,1.34,1.28,2,1.9a11.28,11.28,0,0,1,2.52,9c-.15.67-.29,1.35-.41,2a6.82,6.82,0,0,0-.24,1.46,45.28,45.28,0,0,0-.45,6.31,43.86,43.86,0,0,0,64.85,38.48V166s5.79-3.16,10.65.06c1.08.72,1.68,1,2,.9a43.88,43.88,0,0,0,61.43-50.12c-.43-5,2.44-6.53,2.41-6.58a43.83,43.83,0,0,0-22.28-78.38ZM143,107.05a1.69,1.69,0,0,0-.23,2.38,34.65,34.65,0,1,1-54.72,42l-.12-.09a1.56,1.56,0,0,0-2.39.1,34.66,34.66,0,1,1-55.31-41.4c1.28-3.16-1.7-3.45-1.7-3.45a34.67,34.67,0,0,1,8.21-68.35,30,30,0,0,1,14,3c.55.07,2.2-.12,2.25-1.45V37.2a34.65,34.65,0,0,1,69.29,0c0,.56,0,1.11,0,1.66a1.7,1.7,0,0,0,1.87,1.93A34.66,34.66,0,1,1,143,107.05Z" style="fill:#fff"/><path d="M73.8,24.83A13.58,13.58,0,1,1,87.37,38.41,13.57,13.57,0,0,1,73.8,24.83ZM48.69,103h3.53s0,0,.11,0h.93c1-.14,2.47-.83,3.23-3.45a5.7,5.7,0,0,1,.25-.7l13-45.19a40.85,40.85,0,0,0-21,49.34Zm39.8-34L84.3,83.55h3.58a7.32,7.32,0,1,0,.61-14.62Zm18.32,26.71.9,3.16c.1.21.6,4,3.49,4.15h.92c.08,0,7,0,7,0l-3.76,12.92H94.2c-2.85,0-5.16-1.4-6.6-6.4,0-.16-.09-.31-.13-.46l-5-19.28L77,109c0,.15-.1.3-.14.46-1.43,5-3.75,6.4-6.59,6.4H55.67a40.81,40.81,0,0,0,72-18.48h6.44a47.17,47.17,0,0,1-86.31,18.48H35.76L39.47,103H42A47.21,47.21,0,0,1,72,45.79l1.76-6.13H96.89l-1.21,4.22a47.24,47.24,0,0,1,37.11,33.24h-6.68A40.85,40.85,0,0,0,93.92,50l-4.4,15.31h10c9.91,0,17.95,7.08,17.95,15.82C117.49,87.63,113.1,93.18,106.81,95.64Z" style="fill:#fff"/></g></g></svg>