<svg xmlns="http://www.w3.org/2000/svg" viewBox="0 0 175 168.77"><title>资源 3</title><g id="图层_2" data-name="图层 2"><g id="Layer_2" data-name="Layer 2"><polygon points="133.22 68.52 103.37 68.52 103.37 38.67 71.64 38.67 71.64 68.52 41.78 68.52 41.78 100.25 71.64 100.25 71.64 130.11 103.37 130.11 103.37 100.25 133.22 100.25 133.22 68.52" style="fill:#ec1c24"/><path d="M113.71,0s8.21,10.56,9.62,16.41c0,0-1,1.18-10.56-6.33,0,0-13.65-8.06-25.38-1.26,0,0,15.53,10.17,27.49,7.83,0,0,1.88-.7,8,2.81L125,21.8s-11.5-2.34-22.28,3.52c0,0,.47,1.53,6.33,3.29,0,0,13.13,3,23.21,0a47.65,47.65,0,0,1,9.85,9.84s-6.8-4.22-20.63-4.22c0,0,13.48,13.72,26.85,14.07,0,0,1.52-.47,3.74,3.28,0,0,4,7.86,3.87,9.62,0,0-12.06-11.49-19-8.21,0,0,8.79,19,20.64,21,0,0,.94,1.18,1.52,9.85L159,88.39s-2.58-11.84-14.77-15.94c0,0-1.64,10.55,6.92,22.74,0,0,3.86,4.92,5.39,6.91,0,0-3.05,9.5-4.1,9.74,0,0-2.35-13.37-6.92-16.07,0,0-7,16,1.53,25.09,0,0-3.29,7.63-8,12,0,0,.47-12.54-1.17-20.28,0,0-9.38,1.29-10,25.68,0,0-4.58,4.92-6.22,4.92,0,0,3.18-10.9,3.76-19.46,0,0-14.07,5.39-17,24.5,0,0-5.85,2.58-10,2.58,0,0,6.92-6.56,10.09-14.07l.7-2.35s-12.08,1.29-20.17,14.89l-1.63.94v7.38l2,.12s9.14,17.35,28.13,8.21c0,0-1.41-4.57-21.22-10.67,0,0,11.26-1.64,12.9-2.93,0,0,15.94,16.76,37.63-2.11,0,0-17.71-2.58-25.79-2.35,0,0,6.1-2.69,9.37-5.63,0,0,19.35,6.1,30.49-10.66l3.27-6.68s-10.08,1.52-17.46,5.16c0,0,4-5,4-7,0,0,14.53,1.41,21.45-14.88,0,0,3.4-8.33,2.69-14.54,0,0-10.55,7.74-15,13.25l2.46-6.92A37.38,37.38,0,0,0,174.44,75s.94-7.74-.12-12c0,0-4.81-.35-11.72,12.78a40.82,40.82,0,0,0-.59-7.27,22.79,22.79,0,0,0,5.28-19.46,38.62,38.62,0,0,0-6-13,96.49,96.49,0,0,0-3.87,17.58A33,33,0,0,0,153,45.25s5.63-12.19-5.27-25.67c0,0-6-5.62-7.15-5.62,0,0-2,8.67.7,14.65l1.05,2.46-6.09-5.16S139.86,7.15,113.71,0" style="fill:#fac034"/><path d="M61.29.24s-8.21,10.55-9.62,16.41c0,0,.95,1.17,10.56-6.33,0,0,14.94-8.2,26.66-1.41,0,0-16.81,10.32-28.77,8,0,0-1.88-.7-8,2.81L50,22s11.5-2.35,22.27,3.52c0,0-.46,1.52-6.33,3.28,0,0-13.12,3.05-23.21,0a48,48,0,0,0-9.84,9.84s6.8-4.21,20.63-4.21c0,0-13.48,13.71-26.85,14.06,0,0-1.52-.47-3.74,3.29,0,0-4,7.85-3.87,9.61,0,0,12.06-11.49,19-8.2,0,0-8.8,19-20.64,21,0,0-.94,1.17-1.52,9.84L16,88.62s2.59-11.83,14.77-15.94c0,0,1.64,10.55-6.92,22.75,0,0-3.86,4.92-5.39,6.92,0,0,3.05,9.48,4.1,9.72,0,0,2.36-13.36,6.92-16.06,0,0,7,15.94-1.53,25.08,0,0,3.28,7.63,8,12,0,0-.46-12.54,1.17-20.28,0,0,9.38,1.3,10,25.68,0,0,4.58,4.92,6.21,4.92,0,0-3.17-10.9-3.75-19.46,0,0,14.07,5.39,17,24.5,0,0,5.86,2.58,10,2.58,0,0-6.92-6.56-10.09-14.06l-.7-2.35s12.08,1.29,20.17,14.89l1.63.94v7.38l-2,.12s-9.14,17.34-28.13,8.2c0,0,1.41-4.57,21.22-10.67,0,0-11.26-1.64-12.9-2.92,0,0-15.94,16.76-37.63-2.11,0,0,17.7-2.59,25.79-2.35,0,0-6.1-2.69-9.37-5.62,0,0-19.35,6.09-30.49-10.67l-3.27-6.69s10.07,1.53,17.46,5.16c0,0-4-5-4-7,0,0-14.53,1.4-21.45-14.89,0,0-3.4-8.32-2.69-14.54,0,0,10.55,7.74,15,13.25l-2.47-6.92A37.34,37.34,0,0,1,.56,75.26s-.94-7.74.12-12c0,0,4.81-.35,11.72,12.78a40.41,40.41,0,0,1,.6-7.27A22.77,22.77,0,0,1,7.71,49.35a38.62,38.62,0,0,1,6-13,95.53,95.53,0,0,1,3.87,17.59A33,33,0,0,1,22,45.49s-5.63-12.2,5.27-25.68c0,0,6-5.62,7.15-5.62,0,0,2,8.67-.7,14.65L32.69,31.3l6.09-5.16S35.14,7.38,61.29.24" style="fill:#fac034"/></g></g></svg>