<svg xmlns="http://www.w3.org/2000/svg" xmlns:xlink="http://www.w3.org/1999/xlink" viewBox="0 0 177.96 177.96"><defs><linearGradient id="未命名的渐变_82" x1="88.73" y1="96.13" x2="88.69" y2="61.28" gradientUnits="userSpaceOnUse"><stop offset="0" stop-color="#eacf8c"/><stop offset="0.03" stop-color="#e9cc89"/><stop offset="0.45" stop-color="#e0a765"/><stop offset="0.79" stop-color="#db904f"/><stop offset="1" stop-color="#d98847"/></linearGradient></defs><title>资源 11</title><g id="图层_2" data-name="图层 2"><g id="Layer_2" data-name="Layer 2"><circle cx="88.98" cy="88.98" r="88.98" transform="translate(-36.86 88.98) rotate(-45)" style="fill:#5f90cc"/><path d="M173.45,89A84.47,84.47,0,1,1,89,4.51,84.47,84.47,0,0,1,173.45,89Z" style="fill:#fff"/><circle cx="88.72" cy="88.71" r="73.76" transform="translate(-6.28 6.76) rotate(-4.21)" style="fill:#7aa4d7"/><path d="M146.56,88.71A57.84,57.84,0,1,1,88.72,30.87,57.84,57.84,0,0,1,146.56,88.71Z" style="fill:#7aa4d7;stroke:#fff;stroke-miterlimit:10;stroke-width:0.816761px"/><path d="M117.37,86.88h0C116.69,58,87.84,58.57,87.84,58.57,62.48,58.94,60.27,83,60.08,86.63h0c0,.29,0,.45,0,.45h10c4.11.17,7,1.5,10.23,3.3,0,0,6.67,6,12.86,2.26,0,0,8-5.44,15.09-5.56h9.15C117.38,87,117.37,87,117.37,86.88Z" style="fill:url(#未命名的渐变_82)"/><path d="M44.74,36.13l1.87-1.37-1-1.38c-.21-.29-.4-.53-.57-.73.55-.19.94-.31,1.17-.38s.36-.08.4,0,0,.21-.21.48l1,1.43,2-1.47-.06-.58a.2.2,0,0,1,0-.18,2.93,2.93,0,0,1,.73-.15c.42-.06.66-.06.7,0s0,.27-.24.61l1.45,2a2.31,2.31,0,0,0,.18.23l.15.16s0,.1,0,.17a2.17,2.17,0,0,1-.26.37,2,2,0,0,1-.32.33s-.07,0-.11,0l-.33-.44-2.07,1.53,1.38,1.87c.13.19.28.38.44.57l.22.28a.16.16,0,0,1,0,.15,2.74,2.74,0,0,1-.29.43,2.34,2.34,0,0,1-.31.37s-.08,0-.15-.09l-.22-.34-.54-.76-1.38-1.87-2.05,1.5.26.36a.18.18,0,0,1,0,.16,2,2,0,0,1-.26.42l-.3.36s-.09,0-.12,0a5.11,5.11,0,0,0-.42-.66l-1.66-2.27c-.17-.23-.36-.46-.55-.69A6.14,6.14,0,0,1,44.74,36.13Zm2-1.13-2,1.51,1.48,2L48.27,37Zm4.38-.12-1.48-2-2.07,1.53,1.48,2Z" style="fill:#fff"/><path d="M71.65,28.55l-6,2.12.17.48a.23.23,0,0,1,0,.22,2.29,2.29,0,0,1-.34.28,1.74,1.74,0,0,1-.37.25q-.09,0-.12-.09c-.07-.3-.21-.74-.41-1.31L62.3,24.13c-.12-.33-.22-.61-.33-.86a3.54,3.54,0,0,1,1.19.05l5.83-2,.15-.49c0-.09.06-.14.1-.16a2.22,2.22,0,0,1,.71.13c.41.11.62.2.65.27s-.1.23-.37.5l2.12,6c.12.34.2.57.25.68l.13.34a.14.14,0,0,1,0,.16,3.19,3.19,0,0,1-.35.29,1.77,1.77,0,0,1-.35.24s-.08,0-.11-.11ZM65.5,30.37l6-2.11-2.36-6.72-6,2.12Zm.62-6.08-1.55.55a1.26,1.26,0,0,0-.42.21l-.32-.32a2.62,2.62,0,0,0,.54-.13l3.57-1.25.21-.59c0-.1.07-.16.11-.17a1.47,1.47,0,0,1,.62.15c.35.13.53.23.55.29s-.05.12-.23.19L67,24l.51,1.44.75-.26.16-.58a.26.26,0,0,1,.12-.17,1.79,1.79,0,0,1,.61.18c.36.13.55.22.56.27s0,.11-.19.16l-1.92.67.74,2.1,1.27-.44.23-.64c0-.11.08-.18.14-.2a1.35,1.35,0,0,1,.57.21c.33.17.5.27.52.33s0,.11-.18.16L65.9,29a1.42,1.42,0,0,0-.42.23l-.32-.33a2.62,2.62,0,0,0,.54-.13l1.75-.62L66.71,26l-1.29.46a1.09,1.09,0,0,0-.31.18l-.32-.32a3.09,3.09,0,0,0,.54-.14l1.29-.45ZM68,25.79a6.32,6.32,0,0,1,1.31.06.45.45,0,0,1,.35.28.66.66,0,0,1,0,.46c-.05.16-.12.26-.2.29a.3.3,0,0,1-.21,0,.61.61,0,0,1-.24-.19A3.43,3.43,0,0,0,67.9,26Z" style="fill:#fff"/><path d="M87.81,19.74H84.92a1.14,1.14,0,0,0-.46.07l-.33-.45a3,3,0,0,0,.56.05H90.9l.58-.62a.36.36,0,0,1,.24-.13,2.27,2.27,0,0,1,.68.46c.36.3.55.48.55.53s-.09.09-.27.09H88.86V26h2.63l.55-.72a.22.22,0,0,1,.19-.13,2.1,2.1,0,0,1,.57.38l.6.49a.31.31,0,0,1,.14.23c0,.07-.06.11-.17.11H84a1.35,1.35,0,0,0-.46.07L83.3,26a3,3,0,0,0,.55.05h4Z" style="fill:#fff"/><path d="M110.45,23.11a2.17,2.17,0,0,0-.49-1.6l.15-.14a6.27,6.27,0,0,1,1.25.78c.26.22.36.43.29.63a.81.81,0,0,1-.24.31.87.87,0,0,1-.43.21l2.75,1,.54-.35c.16-.1.27-.14.34-.12a.27.27,0,0,1,.15.13q.06.09.24.45c.12.25.2.42.24.53a.32.32,0,0,1,.05.2s-.08,0-.21,0l-3-1.07c.15.12.32.28.51.45l.32.33a.21.21,0,0,1,0,.13s-.11,0-.29,0a1.34,1.34,0,0,0-.56,0,5,5,0,0,0-1,.37l1.56.55.36-.28a.17.17,0,0,1,.19,0,1,1,0,0,1,.31.3l.35.45c.1.12.14.21.12.28s-.2.1-.52.11l-1.37,3.87a2.46,2.46,0,0,1-.41.84,1.22,1.22,0,0,1-.71.27,2.14,2.14,0,0,1-.66,0c-.08,0-.12-.12-.09-.27a.87.87,0,0,0,0-.4,1.27,1.27,0,0,0-.29-.42,7.19,7.19,0,0,0-.73-.64l.14-.2a11.51,11.51,0,0,0,1.33.72c.17.06.28.07.34,0a.65.65,0,0,0,.17-.3l1.42-4-5.48-1.93-.69,2A7.38,7.38,0,0,0,108.85,25c.11.1.26.26.45.46s.29.33.31.37a.12.12,0,0,1,0,.11c0,.06-.08.08-.17.06a1.5,1.5,0,0,0-.46,0l-1,.2a3.14,3.14,0,0,1,.46.44l1.47.52.34-.24a.13.13,0,0,1,.11,0,1.87,1.87,0,0,1,.37.43c.19.27.27.42.26.46s-.14.09-.36.12l-.33.94a2.76,2.76,0,0,0-.11.36l-.07.25c0,.08-.17.12-.43.11a2.3,2.3,0,0,1-.48-.05s0-.06,0-.12l.12-.34-1.62-.57-.12.34a.21.21,0,0,1-.11.13,1.73,1.73,0,0,1-.37,0,1.62,1.62,0,0,1-.4,0s0-.05,0-.1l.13-.34a3.05,3.05,0,0,0,.13-.32l.48-1.36.17-.52a11.73,11.73,0,0,1-1.28.16l-1,2.76a.29.29,0,0,1-.12.17,1.61,1.61,0,0,1-.46.05,2.27,2.27,0,0,1-.46,0s-.06-.07,0-.15c.2-.45.38-.87.52-1.27l1.41-4c.11-.32.21-.62.28-.87a4.31,4.31,0,0,1,1,.86l1,.35a2.61,2.61,0,0,0-.32-1.63l.14-.1L106.32,22a1.26,1.26,0,0,0-.46-.08l0-.49a2.6,2.6,0,0,0,.5.24Zm-2.67,5.12,1.62.57.43-1.24L108.22,27ZM111.86,24l-3.49-1.23a5.47,5.47,0,0,1,.84.83c.18.23.24.42.19.56a1.17,1.17,0,0,1-.44.48l1.66.59A6.75,6.75,0,0,0,111.86,24ZM110,25.64a8.07,8.07,0,0,1,1.24.76,1.27,1.27,0,0,1,.46.55.91.91,0,0,1,0,.6q-.16.48-.48.36a.25.25,0,0,1-.14-.11,1.65,1.65,0,0,1-.13-.32,4.85,4.85,0,0,0-1-1.69Z" style="fill:#fff"/><path d="M127,30.86l-.34-.24a.9.9,0,0,0-.35-.18l0-.48a1.64,1.64,0,0,0,.33.3l2.68,1.87L130,32c.13,0,.22,0,.26,0s.08.1.1.22l.14.74a.32.32,0,0,1,0,.27s-.1,0-.2,0l-.85-.59-3,4.23,1.53.63-.07.19-1.69-.49-.44.63c-.2.29-.34.51-.43.66l-.24.38a.22.22,0,0,1-.18.08,2.23,2.23,0,0,1-.4-.07,1.43,1.43,0,0,1-.35-.11c-.05,0-.05-.09,0-.17l1.15-1.65c-.72-.2-1.24-.34-1.56-.4a6.13,6.13,0,0,0-1-.1.3.3,0,0,1-.16,0,.1.1,0,0,1,0-.08s0-.39.11-1.08a10.17,10.17,0,0,0,1,.47Zm4.22,4.63A10.46,10.46,0,0,0,133.69,34c.15.25.3.5.44.75a2.81,2.81,0,0,1,.21.47.14.14,0,0,1,0,.13s-.11,0-.24,0a1.15,1.15,0,0,0-.56,0c-.27,0-.94.18-2,.43l.83.58.73-.2c.08,0,.14,0,.17,0a1.87,1.87,0,0,1,.22.65,2.33,2.33,0,0,1,.1.67s-.12,0-.27-.09l-2.14-1.5-.47.69c-.19.27-.4.54-.64.83l1.12.79.77-.23a.24.24,0,0,1,.22,0q.08,0,.12.33l.15.64c0,.24.07.38,0,.43s-.12,0-.26-.09l-2.08-1.46a5.44,5.44,0,0,0-.46,2.39,4.49,4.49,0,0,0,.78,2.13l-.11.16a2.9,2.9,0,0,0-.75-.47,1,1,0,0,0-.57,0,.13.13,0,0,1-.12,0c-.08-.06-.14-.32-.18-.8a4.46,4.46,0,0,1,.18-1.57,8,8,0,0,1,.91-2,5,5,0,0,1-2.33,1.66,6.87,6.87,0,0,1-3.21-.12l0-.21a5.12,5.12,0,0,0,4.8-1.91l-1.31-.92a1.12,1.12,0,0,0-.42-.2l.08-.47a2.33,2.33,0,0,0,.43.36l1.42,1c.19-.23.37-.47.55-.73l.54-.8-1.08-.76a1.36,1.36,0,0,0-.42-.21l.08-.46a2.24,2.24,0,0,0,.42.36Zm-5.64-1.07L124.46,36l1.15.47.93-1.34Zm2-.82-1-.69-.87,1.24,1,.7Zm1.09-1.55-1-.69-.9,1.29,1,.69Zm2.29.22a8,8,0,0,1,.6,1.41,1,1,0,0,1,0,.82.8.8,0,0,1-.5.34.66.66,0,0,1-.5-.06c-.12-.09-.12-.25,0-.5a2.12,2.12,0,0,0,.25-.7,8.93,8.93,0,0,0,0-1.27Z" style="fill:#fff"/><path d="M16,122.43s-8.85-12.66-8.25-37a3.17,3.17,0,0,1,.13-.88s1.21-4.86,5.4.82l1.92,1.82A2,2,0,0,0,18,87l3.22-2.65s3.08-1.75,3.13,2.12a218.57,218.57,0,0,0,2.55,22.34Z" style="fill:#497bbe"/><path d="M22.72,119.53l-4.37,2.63a3.84,3.84,0,0,1-2.32.27l.42-16.82Z" style="fill:#11346c"/><path d="M161.52,122.43s8.85-12.66,8.26-37a3.6,3.6,0,0,0-.14-.88s-1.21-4.86-5.39.82l-1.93,1.82a2,2,0,0,1-2.74-.22l-3.21-2.65s-3.09-1.75-3.13,2.12a220.25,220.25,0,0,1-2.56,22.34Z" style="fill:#497bbe"/><path d="M154.83,119.53l4.37,2.63a3.84,3.84,0,0,0,2.32.27l-.42-16.82Z" style="fill:#11346c"/><path d="M145.75,105.9a2.16,2.16,0,0,0-1.7,1.46,58.33,58.33,0,0,1-110.59-.27,2.16,2.16,0,0,0-1.7-1.46L19,103.42A2.17,2.17,0,0,0,16.5,106c7.43,32.52,37,56.83,72.3,56.83s64.7-24.17,72.23-56.56a2.16,2.16,0,0,0-2.51-2.58Z" style="fill:#5f90cc"/><path d="M57.94,142.3l.34.22-.85,2.55-.51-.16a4.43,4.43,0,0,0,0-2,2.36,2.36,0,0,0-1-1.36,2.49,2.49,0,0,0-2.19-.31,3.58,3.58,0,0,0-2,1.56,3.53,3.53,0,0,0-.65,2.52,2.69,2.69,0,0,0,1.21,2,3.17,3.17,0,0,0,1.49.48,4.31,4.31,0,0,0,1.79-.24l.21.49a4.48,4.48,0,0,1-2.15.37,4,4,0,0,1-1.94-.67,3.71,3.71,0,0,1-1.67-2.5,3.89,3.89,0,0,1,.64-3,4.12,4.12,0,0,1,1.56-1.4,3.86,3.86,0,0,1,2-.44,3.74,3.74,0,0,1,1.93.62,3.52,3.52,0,0,1,1.33,1.66Z" style="fill:#fff"/><path d="M75.87,149.31l5.88,1,.38,2.13-.51.1a3,3,0,0,0-.71-1.45,3.19,3.19,0,0,0-1.51-.54l-1.65-.28-.49,3,.74.12a1.63,1.63,0,0,0,1.13-.09,1.18,1.18,0,0,0,.46-.88l0-.2.54.09-.55,3.37-.54-.09.05-.3a1.11,1.11,0,0,0-.14-.94,1.6,1.6,0,0,0-1-.4l-.84-.14-.39,2.39a.92.92,0,0,0,0,.6.87.87,0,0,0,.58.25l.22,0-.08.47L74.61,157l.07-.46.2,0a.9.9,0,0,0,.62,0,1,1,0,0,0,.25-.61l.86-5.24a.91.91,0,0,0,0-.63.81.81,0,0,0-.52-.23l-.26,0Z" style="fill:#fff"/><path d="M100.09,149.66l2.92-.56.09.46-.22,0a.74.74,0,0,0-.54.29,1.34,1.34,0,0,0,0,.82l1,4.92a1.27,1.27,0,0,0,.24.63c.11.11.33.13.65.06l.22,0,.09.46-2.92.57-.09-.46.24,0a.91.91,0,0,0,.54-.25,1.07,1.07,0,0,0,0-.72l-1-5a1.27,1.27,0,0,0-.25-.65c-.11-.1-.31-.12-.63-.06l-.23,0Z" style="fill:#fff"/><path d="M125.92,140.31l.35-.18,1.83,2-.39.37a4.47,4.47,0,0,0-1.77-1,2.33,2.33,0,0,0-1.69.24,2.52,2.52,0,0,0-1.34,1.77,4,4,0,0,0,2.29,4.3,2.7,2.7,0,0,0,2.29-.11,3.23,3.23,0,0,0,1.15-1.07,4.29,4.29,0,0,0,.66-1.68l.53.06a4.57,4.57,0,0,1-.72,2,4.08,4.08,0,0,1-1.54,1.37,3.72,3.72,0,0,1-3,.25,3.93,3.93,0,0,1-2.3-2,4.14,4.14,0,0,1-.47-2,3.83,3.83,0,0,1,.6-2,3.66,3.66,0,0,1,1.49-1.38,3.4,3.4,0,0,1,2.09-.36Z" style="fill:#fff"/><path d="M84.36,111.28a.4.4,0,0,1-.12-.55.4.4,0,0,1,.55-.13l7.64,4.8a.52.52,0,0,0,.54,0l1.32-.68a.55.55,0,0,0,0-1l-6.74-4.19a.4.4,0,0,1,.42-.68l7.7,4.78a.55.55,0,0,0,.54,0l1.15-.59a.54.54,0,0,0,0-.94l-7.06-4.5a.41.41,0,0,1-.13-.56.41.41,0,0,1,.56-.12l8,5.09a.55.55,0,0,0,.54,0l1.1-.56a.55.55,0,0,0,0-.95l-8-5a1.16,1.16,0,0,0-1.46-.11l0,0-4.59,3a1.74,1.74,0,0,1-1.9.18l0,0L83,107.52a.86.86,0,0,1-.37-.78,1.28,1.28,0,0,1,.74-.86l0,0,4.05-2.68a.5.5,0,0,0,0-.84L77.44,96.12l0,0c-2.5-2.06-8.13-1.57-8.13-1.57l-19.87.79C44.32,95.3,42,97,42,97l-6,4c-5.74,3.83-.41,3.41,0,3.38H60.52c2.18-.2,5.56,1.41,5.56,1.41L76.25,111h0l.23.12,10.57,5.45a3.82,3.82,0,0,0,3.71,0l.25-.13a.55.55,0,0,0,0-1Z" style="fill:#fff"/><path d="M141.73,101l-6-4s-2.29-1.69-7.35-1.69l-19.88-.79s-5.63-.49-8.12,1.57l0,0L89.1,103.07a.27.27,0,0,1-.08.07l-5.22,3.44a.87.87,0,0,0-.32.25l.06.06,1.29,1A.51.51,0,0,0,85,108a1,1,0,0,0,.9-.2l4.59-3a2,2,0,0,1,2.42.12l8.7,5.44a1.08,1.08,0,0,0,1.06,0l9-4.66s3.38-1.61,5.57-1.41h24.46C142.15,104.38,147.48,104.8,141.73,101Z" style="fill:#fff"/></g></g></svg>