<svg xmlns="http://www.w3.org/2000/svg" viewBox="0 0 184.66 197.47"><title>资源 10</title><g id="图层_2" data-name="图层 2"><g id="Layer_2" data-name="Layer 2"><path d="M92.33,0a9,9,0,1,1-9,9,9,9,0,0,1,9-9Z" style="fill:#fff;fill-rule:evenodd"/><path d="M80.73,8.52A89.79,89.79,0,0,0,21.5,41.21C9,56.51.94,76.14,0,99.09H6C5.07,81.22,12.61,52,26.63,38.69c-3,2.67-20.94,29.71-18.89,60.4h6.67c-5.1-47,24.47-80.57,66.32-90.57Zm23.37,0c23,2.62,44.72,13.1,59.85,31.54,12.55,15.3,19.77,32.55,20.71,55.49L178,104.4c.76-33.62-5.83-52-21.11-68.31,4.79,2.39,23.5,36.69,19.33,67.66l-5.28-9c2.55-47-25.09-78.15-66.8-86.23ZM170.94,98.4s-2.08,5.57-2.08,8.91a16,16,0,0,0,2.08,7.93,4.52,4.52,0,0,1,.84,2.37s3.2-2.23,3.2-9.4a23.67,23.67,0,0,0-4-9.81Zm13.57,0s-2.92,4.11-5.84,7.59c0,0-2.65,2.22-3.34,8.07a21.46,21.46,0,0,0,0,4.52s4.45-1,7.44-7.93c1.6-4,1.74-12.25,1.74-12.25Zm-61.25,60.76s-5.12,2.27-9.44,3.66c0,0-7.46,1.39-9.07,5.19,0,0-2,6.07,1.9,7.1a12.39,12.39,0,0,0,11.71-5.42c2.71-3.8,4.9-10.53,4.9-10.53Zm12,19.46a70.58,70.58,0,0,0-14.19-2.56s-14-.66-16.47,3.51c0,0-1.83,7.61,1.91,8.71,0,0,9.22.88,17-3.37,3.81-1.46,11.78-6.29,11.78-6.29Zm-14.19-7.39s-.51-6.44,6.44-13.32c0,0,5.7-5.26,11.34-6.44a35,35,0,0,0-2.64,5.93,27.16,27.16,0,0,0-.43,3.37s-.66,3.14-2.35,4.46c-8.85,6.73-12.36,6-12.36,6Zm1.83,2.42s6.44-3.44,8.41-4.69c0,0,3.51-2.34,10.61-2.48a110.16,110.16,0,0,1,12.59-.22s-8.13,6.43-10.39,8c0,0-3.66,2.71-7.54,2.64-8.71.22-13.68-3.29-13.68-3.29Zm18.44-9.59s1.9-.58,6.44-5.63c0,0,4.75-5.35,11.41-6.22a19.22,19.22,0,0,0,9.37-3.3A53.52,53.52,0,0,1,159.92,161s-2.12,2.78-11.41,3.87c-4.61.66-7.17-.8-7.17-.8Zm11.49-25.32a43.47,43.47,0,0,0-12.15,12.15s-2.42,5.12-1.61,10c0,0,3.66.73,8.85-5.27a13.29,13.29,0,0,0,4-8c.22-4.69.88-8.86.88-8.86Zm9.58-14.34s-5.34,5.93-7.54,11.2c0,0-1.09,2.63-.8,9.29a13.32,13.32,0,0,0,.53,3.26s3.54-.5,8.81-11a9.55,9.55,0,0,0-.26-4.89c-.88-2.71-.74-7.82-.74-7.82Zm20-10.29a79.69,79.69,0,0,1-5.93,6.85,20.6,20.6,0,0,0-7.77,13.7A14,14,0,0,0,179.61,127c2.35-4.09,2.76-12.88,2.76-12.88Zm-4.48,17.94s-5.18,4.21-7.58,5.38c0,0-7.83,3.36-10,8.35a18.93,18.93,0,0,1-2.27,4.34s5.7,1.62,9.65-2.2c7.58-4.54,10.23-15.87,10.23-15.87Zm-9.78-21.18a42.76,42.76,0,0,0-4.53,10.88,21.68,21.68,0,0,0,.84,8.68,11.91,11.91,0,0,1,.58,2.85s3.95-2.2,5.18-10.69a51.35,51.35,0,0,0-2.07-11.72ZM2.84,101.52l.48,4.25L.86,107.85l0,5.51L5,115l.67,3.89L2.29,121.5c.48,1.75,1,3.5,1.63,5.25l4.57-.33,2,4.85L6.67,134.7c.91,2.06,1.64,3.55,2.71,5.57l4.77-.2,2.17,3.78L14,148.49q1.84,2.87,3.88,5.64L22.93,153l3.36,3.88-.95,5.76c1.86,2,3.8,4,5.82,5.85l6.27-1.78,5.16,3.8-.27,3-.26,3a79.21,79.21,0,0,0,9.65,5.68l6.31-3.6L64.8,181l2.39,7.22a71.62,71.62,0,0,0,15.26,2.27c0-2.32-.19-9.14-.29-11.91-57.79-10.17-73.14-52.17-76-77,0,0-.33-.07-.34-.11Zm5.2,0c5.17,43.32,36.15,64.47,57.8,71.25a120.94,120.94,0,0,0,16.4,4.06c0-2.12.21-6.1.21-8.22a9.57,9.57,0,0,1-2.55-3.25c-41.65-7.72-61-41.25-65-63.84Z" style="fill:#fff;fill-rule:evenodd"/><path d="M91.93,143h2.7l-.16,16.07a22.49,22.49,0,0,0,3.85-2c4.31-3-1-4.39-1-4.39a8.94,8.94,0,0,0-1.77-.52v-3.6c1.15,0,1.85.14,1.85.14s6.74,1.08,6.85,6.29c.45,5.5-9.38,7.92-9.38,7.92l-.45.05-.14,14.46,1-.15c5-1.07,4.47-2.56,4.47-2.56.09-1-2.15-1.58-2.15-1.58a7.36,7.36,0,0,0-2-.76v-3l.32.07c7.34,1.41,6.82,5.32,6.82,5.32-1.11,5-8,5.2-8,5.2l-.47-.05-.18,17.55H92.49l-.18-17.61c-2.61.12-3.48,1.08-3.48,1.08-1.07,1.93,1.9,3.09,1.9,3.09l.28.09v2.13a5.41,5.41,0,0,1-1.88-.5c-4.3-2.9-1-6.13-1-6.13.35-.79,2.35-1.4,4.15-1.79l-.15-14.47c-4.85,1-4.83,2.93-4.83,2.93.15,2.34,3.12,2.49,3.12,2.49l.58,0v3l-.55,0c-6.55-.42-6.3-5.47-6.3-5.47a6.19,6.19,0,0,1,5.47-5.72,24.31,24.31,0,0,0,2.48-.61L91.93,143ZM91,148.8a20.49,20.49,0,0,0-6.27,1.84s-3.81,1.07-4.88,6l.25,3,4-.41a8.84,8.84,0,0,0,4.72-4.31A6.8,6.8,0,0,1,91,153V148.8ZM95.56,187c.36.17.67.42.61.8,0,0,.13.43-.66,1.68,0,0-.78,2.05,0,2.3,0,0,.5.16.64-1.17A8.31,8.31,0,0,1,97,189s1.42-3.08-1.44-3.61V187ZM83.47,153.48a.79.79,0,0,1,.79.79.79.79,0,0,1-.79.8.8.8,0,0,1-.8-.8.79.79,0,0,1,.8-.79Zm-8,7.12a13.28,13.28,0,0,0,2.52,0,5.1,5.1,0,0,0,1.28-.84c.13-.13.09-.18.27-.12s.62.24.15.76a8.69,8.69,0,0,0-2.92,2.67s-.64-.06-.26-.65l1-1.07-1.31,0s-.86.12-.77-.7Z" style="fill:#fff;fill-rule:evenodd"/><path d="M96.33,44.41c9.19,3.26,16.37,19.32,17.25,39.16H96.33V44.41ZM109.09,155a66.47,66.47,0,0,0,38.29-23.33,67.19,67.19,0,0,0,15.13-42.14h2.34a2.29,2.29,0,0,0,2.28-2.29h0a2.29,2.29,0,0,0-2.28-2.28h-2.51c0-.84-.07-1.61-.07-2.13,0-1.72,0-3.44-3.45-3.44s-3.44,1.72-3.44,3.44q0,1,.06,2.13H147.7c-1.66-28-25.64-50.4-54.82-50.4S39.73,56.88,38.07,84.91H30.33q.06-1.09.06-2.13c0-1.72,0-3.44-3.44-3.44s-3.45,1.72-3.45,3.44c0,.52,0,1.29-.08,2.13h-2.5a2.29,2.29,0,0,0-2.28,2.28h0a2.29,2.29,0,0,0,2.28,2.29h2.33a67.26,67.26,0,0,0,15.14,42.14A66.47,66.47,0,0,0,76.68,155c1.69.34,3.37.68,4.06-2.68s-1-3.71-2.69-4.05a59.59,59.59,0,0,1-34.33-20.93A60.31,60.31,0,0,1,30.14,89.48H38c.8,28.79,25.15,52,54.88,52s54.09-23.25,54.89-52h7.85a60.3,60.3,0,0,1-13.57,37.81,59.59,59.59,0,0,1-34.33,20.93c-1.69.34-3.38.68-2.69,4.05s2.37,3,4.06,2.68Zm4.54-64.49c-.61,20.45-7.9,37.18-17.3,40.51V90.46ZM45.09,83.57H64.58c.67-17.2,6.29-32.06,14.35-40.15C60.66,48.83,47,64.56,45.09,83.57Zm27.1,0H89.44V44.41c-9.19,3.26-16.37,19.32-17.25,39.16Zm49,0h19.5c-1.87-19-15.57-34.74-33.85-40.15,8.07,8.09,13.69,23,14.35,40.15Zm19.65,6.89H121.18c-.75,19.49-7.87,36-17.69,43,20.58-4.53,36.21-22,37.34-43Zm-51.39,0H72.14c.61,20.45,7.9,37.18,17.3,40.51V90.46Zm-24.85,0H44.94c1.13,21.05,16.76,38.48,37.34,43-9.82-7-16.94-23.52-17.69-43Z" style="fill:#fff;fill-rule:evenodd"/></g></g></svg>