<svg xmlns="http://www.w3.org/2000/svg" xmlns:xlink="http://www.w3.org/1999/xlink" viewBox="0 0 178.03 178.35"><title>资源 16</title><g style="isolation:isolate"><g id="图层_2" data-name="图层 2"><g id="图层_1-2" data-name="图层 1"><g id="_编组_" data-name="&lt;编组&gt;"><rect x="20.02" y="22.34" width="137.99" height="133.67" rx="16.5" ry="16.5" transform="translate(-36.82 95.6) rotate(-47.98)" fill="#d71718"/></g><g id="_编组_2" data-name="&lt;编组&gt;"><image width="311" height="316" transform="translate(49.93 41.93) scale(0.24)" opacity="0.75" xlink:href="资源 161.png" style="mix-blend-mode:multiply"/><polygon id="_路径_" data-name="&lt;路径&gt;" points="87.31 45.42 90.01 45.61 92.61 45.97 95.11 46.5 97.51 47.19 99.81 48.04 102 49.03 104.08 50.15 106.04 51.4 107.9 52.78 109.64 54.26 111.26 55.85 112.77 57.53 114.15 59.31 115.41 61.16 116.54 63.08 117.55 65.07 118.43 67.11 119.18 69.2 119.79 71.32 120.27 73.48 120.61 75.67 120.81 77.86 120.87 80.07 120.78 82.27 120.55 84.46 120.17 86.64 119.64 88.79 118.95 90.91 118.12 92.98 117.13 95.01 115.97 96.98 114.66 98.88 120.87 104.79 112.54 113.48 106.42 107.44 105.14 108.22 103.86 108.94 102.56 109.61 101.27 110.23 99.97 110.81 98.67 111.33 97.37 111.81 96.06 112.22 94.75 112.59 93.45 112.91 92.13 113.17 90.82 113.38 89.51 113.55 88.2 113.65 86.89 113.7 85.57 113.71 84.26 113.66 82.95 113.55 81.64 113.39 80.33 113.18 79.02 112.91 77.72 112.59 76.42 112.22 75.11 111.79 73.82 111.3 72.53 110.76 71.24 110.17 69.95 109.51 68.67 108.81 67.39 108.04 66.12 107.22 64.86 106.35 63.91 107.28 63.97 107.79 64 108.28 64 108.75 63.96 109.22 63.9 109.67 63.8 110.09 63.68 110.5 63.53 110.9 63.36 111.28 63.16 111.63 62.93 111.97 62.69 112.28 62.42 112.57 62.14 112.84 61.83 113.08 61.51 113.3 61.17 113.49 60.82 113.66 60.45 113.8 60.08 113.9 59.69 113.98 59.29 114.03 58.88 114.05 58.47 114.03 58.05 113.99 57.62 113.91 57.19 113.79 56.76 113.64 56.33 113.46 55.89 113.23 55.46 112.97 55.02 112.67 54.75 112.28 54.5 111.88 54.28 111.48 54.09 111.08 53.92 110.69 53.79 110.29 53.68 109.89 53.6 109.49 53.55 109.1 53.53 108.71 53.54 108.33 53.57 107.95 53.62 107.58 53.71 107.22 53.81 106.87 53.95 106.53 54.11 106.2 54.3 105.88 54.51 105.58 54.74 105.29 55 105.01 55.28 104.75 55.59 104.5 55.92 104.28 56.27 104.08 56.64 103.89 57.04 103.72 57.46 103.58 57.89 103.46 58.36 103.36 58.84 103.29 59.34 103.24 60.02 102.66 55.59 97.26 60.74 91.96 61.68 92.82 62.64 93.64 63.62 94.44 64.62 95.21 65.64 95.94 66.67 96.65 67.72 97.31 68.79 97.94 69.87 98.53 70.97 99.09 72.08 99.6 73.21 100.07 74.34 100.5 75.49 100.88 76.66 101.22 77.83 101.51 79.01 101.76 80.2 101.95 81.4 102.09 82.6 102.18 83.82 102.22 85.04 102.21 86.27 102.14 87.5 102 88.73 101.82 89.97 101.57 91.22 101.26 92.46 100.89 93.71 100.46 94.96 99.96 96.2 99.4 97.45 98.76 75.38 77.39 69.29 83.72 59.49 73.91 76.32 56.12 76.7 56.21 77.08 56.29 77.46 56.37 77.83 56.42 78.2 56.48 78.57 56.52 78.93 56.55 79.29 56.57 79.65 56.59 80 56.59 80.36 56.58 80.71 56.56 81.05 56.53 81.39 56.49 81.73 56.44 82.06 56.38 82.4 56.3 82.72 56.21 83.05 56.12 83.37 56.01 83.69 55.89 84 55.76 84.31 55.61 84.61 55.46 84.92 55.29 85.21 55.11 85.51 54.91 85.8 54.71 86.08 54.49 86.36 54.26 86.64 54.01 86.91 53.76 92.24 59.21 83.78 68.27 106.31 90.65 107 89.35 107.6 87.99 108.11 86.57 108.52 85.11 108.85 83.59 109.09 82.05 109.24 80.47 109.3 78.86 109.28 77.23 109.17 75.59 108.98 73.93 108.7 72.26 108.35 70.59 107.91 68.93 107.39 67.27 106.79 65.63 106.12 64 105.37 62.4 104.54 60.83 103.64 59.29 102.66 57.79 101.61 56.34 100.48 54.94 99.29 53.59 98.03 52.3 96.7 51.08 95.3 49.93 93.83 48.86 92.3 47.86 90.7 46.96 89.04 46.14 87.31 45.42 87.31 45.42" fill="#ddd43c" fill-rule="evenodd"/></g></g></g></g></svg>